<?xml version="1.0" encoding="UTF-8" standalone="no"?>
<!-- Created with Inkscape (http://www.inkscape.org/) -->

<svg
   width="74.964111mm"
   height="74.964111mm"
   viewBox="0 0 74.964111 74.964111"
   version="1.1"
   id="svg634"
   xmlns="http://www.w3.org/2000/svg"
   xmlns:svg="http://www.w3.org/2000/svg">
  <defs
     id="defs631" />
  <g
     id="layer1"
     transform="translate(-65.174271,-36.260414)">
    <circle
       style="display:inline;fill:#393536;fill-opacity:1;fill-rule:evenodd;stroke-width:0.264583;image-rendering:auto"
       id="path4539"
       cx="102.65633"
       cy="73.74247"
       r="37.482056" />
    <path
       d="m 0,0 -21.024,1.047 -18.242,-14.776 c -5.122,0.187 -6.008,4.996 -3.403,7.109 L -23.571,8.848 -4.953,7.923 4.344,29.691 c -6.822,3.54 -13.983,6.885 -17.731,8.603 -1.706,0.782 -3.62,0.953 -5.438,0.491 L -66.222,26.742 c 0,0 -26.094,-29.809 -25.935,-31.54 0.159,-1.73 -17.975,-46.287 -17.62,-48.541 0.269,-1.717 8.234,-20.283 12.017,-29.042 1.279,-2.96 3.351,-5.498 5.991,-7.348 l 20.98,-14.695 34.793,-15.063 5.273,2.364 3.891,27.139 29.678,21.938 c 4.094,-0.347 5.326,-3.521 4.274,-5.79 -0.26,-0.564 -0.663,-1.072 -1.198,-1.469 l -25.618,-18.939 -2.749,-19.168 10.194,4.57 24.556,-4.563 29.147,31.348 c 0.84,0.904 1.534,1.934 2.056,3.052 L 60.656,-42.274 46.513,-21.3 c 0,0 -23.652,34.732 -25.605,39.969 -0.625,1.676 -4.635,4.411 -9.794,7.355 z"
       style="display:inline;fill:#63cdf5;fill-opacity:1;fill-rule:nonzero;stroke:none;stroke-width:4.90441"
       id="path3820"
       transform="matrix(0.07193363,0,0,-0.07192782,108.97307,72.828355)" />
    <path
       d="M 0,0 C 10.009,-11.898 27.879,-13.451 39.679,-3.448 51.512,6.582 53.055,24.492 43.105,36.305 33.104,48.181 15.285,49.67 3.427,39.622 -8.573,29.454 -10.084,11.986 0,0 M -11.778,-10.276 C -27.502,8.18 -25.268,35.878 -6.79,51.542 11.556,67.096 39.652,64.766 55.111,46.409 70.578,28.043 68.116,0.019 49.668,-15.535 31.48,-30.868 3.743,-28.494 -11.778,-10.276"
       style="fill:#ffffff;fill-opacity:1;fill-rule:nonzero;stroke:none;stroke-width:4.90441"
       id="path3824"
       transform="matrix(0.07193363,0,0,-0.07192782,87.209418,56.062217)" />
    <path
       d="m 0,0 c 7.918,6.679 20.021,5.747 26.738,-2.057 6.825,-7.93 5.736,-20.564 -2.342,-27.17 C 16.39,-35.772 4.392,-34.615 -2.277,-26.653 -8.964,-18.67 -7.94,-6.698 0,0"
       style="fill:#ffffff;fill-opacity:1;fill-rule:nonzero;stroke:none;stroke-width:4.90441"
       id="path3828"
       transform="matrix(0.07193363,0,0,-0.07192782,87.873893,53.715924)" />
    <path
       d="m 0,0 c -11.246,-9.566 -12.608,-26.438 -3.043,-37.686 9.566,-11.246 26.439,-12.608 37.686,-3.043 11.247,9.567 12.609,26.44 3.043,37.686 C 28.119,8.204 11.247,9.566 0,0"
       style="fill:#ffffff;fill-opacity:1;fill-rule:nonzero;stroke:none;stroke-width:4.90441"
       id="path3832"
       transform="matrix(0.07193363,0,0,-0.07192782,93.67214,60.527991)" />
    <path
       d="m 0,0 c -16.119,-13.711 -40.301,-11.758 -54.011,4.361 -13.711,16.118 -11.758,40.3 4.361,54.011 C -33.531,72.083 -9.35,70.13 4.361,54.011 18.072,37.892 16.119,13.71 0,0 M 31.771,54.713 C 29.421,59.897 26.334,64.852 22.46,69.405 7.672,86.792 -14.591,94.037 -35.529,90.446 l -20.042,24.719 C -58.562,104.178 -64.754,93.959 -74.03,86.139 -82.967,78.604 -93.656,74.322 -104.606,73.159 L -83.575,49.58 c -6.903,-20.091 -3.323,-43.227 11.465,-60.614 3.873,-4.553 8.267,-8.396 13.008,-11.547 l -3.247,-56.206 84.034,-32.483 -8.021,12.719 -36.409,38.439 6.792,27.755 c 11.238,1.582 22.172,6.247 31.449,14.138 9.277,7.892 15.637,17.935 19.002,28.774 l 28.484,2.251 32.1,-42.105 11.267,-9.958 L 87.77,48.9 Z"
       style="fill:#ffffff;fill-opacity:1;fill-rule:nonzero;stroke:none;stroke-width:4.90441"
       id="path3836"
       transform="matrix(0.07193363,0,0,-0.07192782,96.703889,64.092009)" />
    <path
       d="m 0,0 c -5.458,10.471 -7.38,21.841 -6.212,32.756 l -97.849,-50.905 29.445,-56.596 97.945,50.955 C 13.675,-18.486 5.425,-10.407 0,0"
       style="fill:#ffffff;fill-opacity:1;fill-rule:nonzero;stroke:none;stroke-width:4.90441"
       id="path3840"
       transform="matrix(0.07193363,0,0,-0.07192782,85.257658,56.520267)" />
    <path
       d="m 85.313,-78.922 0.035,0.027 0.019,-0.102 25.019,19.7 -6.829,41.829 -12.411,36.971 -34.293,56.52 c 10e-4,0.002 0.014,0.019 0.014,0.019 l -0.308,0.525 -0.348,0.657 -8.913,22.211 c -0.46,0.007 -0.922,0.08 -1.36,0.289 -7.786,3.726 -30.439,12.789 -51.95,21 -0.773,0.296 -1.63,0.291 -2.401,-0.01 l -51.488,-20.11 c -0.896,-0.349 -1.904,-0.295 -2.754,0.15 l -18.794,9.811 c -52.97388,-47.985939 -38.70566,-128.606911 -0.057,0.03 l -1.435,0.75 c -66.53979,5.98851 -63.01698,-21.999336 -0.017,0.009 l -17.173,8.965 c -1.601,0.835 -2.209,2.787 -1.358,4.359 2.862,5.285 9.546,7.292 14.927,4.482 l 24.774,-12.933 c 0.851,-0.445 1.858,-0.499 2.754,-0.149 l 38.793,15.151 c -0.831672,16.30987 -0.03576,12.26667 0,0 l 11.761,4.593 c 0.768,0.301 1.624,0.305 2.396,0.012 l 1.417,-0.538 c 8.374,-3.178 29.379,-11.213 44.635,-17.595 l -8.185,20.396 -22.064,38.087 -23.444,32.834 -33.423,14.971 h -0.132 l 0.029,-0.065 h -0.029 l -36.839,-8.472 -30.733,-24.493 c -2.26027,-4.57593 -9.97503,-19.84287 0,0 l -46.097,-14.71 -43.143,-23.968 -37.101,-26.661 -19.438,-34.409 -17.271,-33.621 -17.204,-32.242 1.078,0.097 -1.078,-0.229 -0.066,-0.066 -52.96,-45.291 -0.098,-0.018 -1.577,-1.314 -46.032,-54.306 49.841,-8.537 55.294,-7.15 -0.003,-0.008 0.022,0.005 0.044,-0.005 0.006,0.018 49.375,12.459 13.754,-0.899 9.165,22.674 51.225,8.249 4.306,11.184 c -19.31572,86.429607 -18.26704,4.10202 0.078,0.2 l 7.665,19.909 42.413,29.32 c 3.195,2.206 7.576,1.405 9.782,-1.786 2.209,-3.196 1.408,-7.574 -1.785,-9.783 l -38.846,-26.851 -13.395,-34.79 -51.376,-8.273 -4.455,-11.02 64.847,-4.241 -0.103,0.077 0.17,-0.011 60.938,-14.973 47.477,12.411 63.894,-4.136 0.015,0.003 0.051,-0.003 -0.028,0.007 60.835,12.732 z"
       style="fill:#ffffff;fill-opacity:1;fill-rule:nonzero;stroke:none;stroke-width:4.90441"
       id="path3844"
       transform="matrix(0.07193363,0,0,-0.07192782,119.5523,88.6321)" />
  </g>
</svg>
